<svg width="24" height="24" viewBox="0 0 32 32" fill="currentColor" xmlns="http://www.w3.org/2000/svg">
<path fill-rule="evenodd" clip-rule="evenodd" d="M17.3292 14.372V14.3253C17.3197 14.3409 17.3064 14.3566 17.2981 14.372H17.3292Z"/>
<path d="M17.3292 14.3253V14.372H17.2981C17.3064 14.3566 17.3197 14.3409 17.3292 14.3253L17.3292 12.3013H12.5794C12.643 13.6413 12.5794 26.585 12.5794 26.585H17.3292V18.6078C17.3292 18.1797 17.3619 17.7554 17.4868 17.4502C17.8304 16.5957 18.6104 15.7136 19.923 15.7136C21.6418 15.7136 22.328 17.0237 22.328 18.9431V26.5849H27.0769V18.394C27.0769 14.0069 24.7344 11.966 21.6092 11.966C19.0865 11.966 17.9603 13.3542 17.3292 14.3253Z"/>
<path d="M7.57935 10.3517H7.54798C5.95536 10.3517 4.92307 9.25449 4.92307 7.88306C4.92307 6.48153 5.98554 5.41541 7.61043 5.41541C9.23568 5.41541 10.2344 6.48153 10.2655 7.88306C10.2655 9.25449 9.23568 10.3517 7.57935 10.3517Z"/>
<path d="M9.95318 26.5849H5.20551V12.3012H9.95318V26.5849Z"/>
</svg>
